<svg width="132" height="23" viewBox="0 0 132 23" fill="none" xmlns="http://www.w3.org/2000/svg">
<path d="M0.904297 22V0.671875H7.4668C9.3418 0.671875 11.0166 1.09668 12.4912 1.94629C13.9756 2.78613 15.1328 3.9873 15.9629 5.5498C16.793 7.10254 17.208 8.87012 17.208 10.8525V11.834C17.208 13.8164 16.7979 15.5791 15.9775 17.1221C15.167 18.665 14.0195 19.8613 12.5352 20.7109C11.0508 21.5605 9.37598 21.9902 7.51074 22H0.904297ZM5.29883 4.23145V18.4697H7.42285C9.1416 18.4697 10.4551 17.9082 11.3633 16.7852C12.2715 15.6621 12.7354 14.0557 12.7549 11.9658V10.8379C12.7549 8.66992 12.3057 7.0293 11.4072 5.91602C10.5088 4.79297 9.19531 4.23145 7.4668 4.23145H5.29883ZM19.4785 13.9287C19.4785 12.3564 19.7812 10.9551 20.3867 9.72461C20.9922 8.49414 21.8613 7.54199 22.9941 6.86816C24.1367 6.19434 25.46 5.85742 26.9639 5.85742C29.1025 5.85742 30.8457 6.51172 32.1934 7.82031C33.5508 9.12891 34.3076 10.9062 34.4639 13.1523L34.4932 14.2363C34.4932 16.668 33.8145 18.6211 32.457 20.0957C31.0996 21.5605 29.2783 22.293 26.9932 22.293C24.708 22.293 22.8818 21.5605 21.5146 20.0957C20.1572 18.6309 19.4785 16.6387 19.4785 14.1191V13.9287ZM23.7119 14.2363C23.7119 15.7402 23.9951 16.8926 24.5615 17.6934C25.1279 18.4844 25.9385 18.8799 26.9932 18.8799C28.0186 18.8799 28.8193 18.4893 29.3955 17.708C29.9717 16.917 30.2598 15.6572 30.2598 13.9287C30.2598 12.4541 29.9717 11.3115 29.3955 10.501C28.8193 9.69043 28.0088 9.28516 26.9639 9.28516C25.9287 9.28516 25.1279 9.69043 24.5615 10.501C23.9951 11.3018 23.7119 12.5469 23.7119 14.2363ZM40.9971 6.15039L41.1289 7.98145C42.2617 6.56543 43.7803 5.85742 45.6846 5.85742C47.3643 5.85742 48.6143 6.35059 49.4346 7.33691C50.2549 8.32324 50.6748 9.79785 50.6943 11.7607V22H46.4609V11.8633C46.4609 10.9648 46.2656 10.3154 45.875 9.91504C45.4844 9.50488 44.835 9.2998 43.9268 9.2998C42.7354 9.2998 41.8418 9.80762 41.2461 10.8232V22H37.0127V6.15039H40.9971ZM71.5537 22H67.1592V12.8594H58.5898V22H54.1953V0.671875H58.5898V9.31445H67.1592V0.671875H71.5537V22ZM74.4688 13.9287C74.4688 12.3564 74.7715 10.9551 75.377 9.72461C75.9824 8.49414 76.8516 7.54199 77.9844 6.86816C79.127 6.19434 80.4502 5.85742 81.9541 5.85742C84.0928 5.85742 85.8359 6.51172 87.1836 7.82031C88.541 9.12891 89.2979 10.9062 89.4541 13.1523L89.4834 14.2363C89.4834 16.668 88.8047 18.6211 87.4473 20.0957C86.0898 21.5605 84.2686 22.293 81.9834 22.293C79.6982 22.293 77.8721 21.5605 76.5049 20.0957C75.1475 18.6309 74.4688 16.6387 74.4688 14.1191V13.9287ZM78.7021 14.2363C78.7021 15.7402 78.9854 16.8926 79.5518 17.6934C80.1182 18.4844 80.9287 18.8799 81.9834 18.8799C83.0088 18.8799 83.8096 18.4893 84.3857 17.708C84.9619 16.917 85.25 15.6572 85.25 13.9287C85.25 12.4541 84.9619 11.3115 84.3857 10.501C83.8096 9.69043 82.999 9.28516 81.9541 9.28516C80.9189 9.28516 80.1182 9.69043 79.5518 10.501C78.9854 11.3018 78.7021 12.5469 78.7021 14.2363ZM96.0605 6.15039L96.1924 7.92285C97.3154 6.5459 98.834 5.85742 100.748 5.85742C102.789 5.85742 104.19 6.66309 104.952 8.27441C106.065 6.66309 107.652 5.85742 109.713 5.85742C111.432 5.85742 112.711 6.36035 113.551 7.36621C114.391 8.3623 114.811 9.86621 114.811 11.8779V22H110.562V11.8926C110.562 10.9941 110.387 10.3398 110.035 9.92969C109.684 9.50977 109.063 9.2998 108.175 9.2998C106.905 9.2998 106.026 9.90527 105.538 11.1162L105.553 22H101.319V11.9072C101.319 10.9893 101.139 10.3252 100.777 9.91504C100.416 9.50488 99.8008 9.2998 98.9316 9.2998C97.7305 9.2998 96.8613 9.79785 96.3242 10.7939V22H92.0908V6.15039H96.0605ZM125.372 22.293C123.048 22.293 121.153 21.5801 119.688 20.1543C118.233 18.7285 117.506 16.8291 117.506 14.4561V14.0459C117.506 12.4541 117.813 11.0332 118.429 9.7832C119.044 8.52344 119.913 7.55664 121.036 6.88281C122.169 6.19922 123.458 5.85742 124.903 5.85742C127.071 5.85742 128.775 6.54102 130.016 7.9082C131.266 9.27539 131.891 11.2139 131.891 13.7236V15.4521H121.798C121.935 16.4873 122.345 17.3174 123.028 17.9424C123.722 18.5674 124.596 18.8799 125.65 18.8799C127.281 18.8799 128.556 18.2891 129.474 17.1074L131.554 19.4365C130.919 20.335 130.06 21.0381 128.976 21.5459C127.892 22.0439 126.69 22.293 125.372 22.293ZM124.889 9.28516C124.049 9.28516 123.365 9.56836 122.838 10.1348C122.32 10.7012 121.988 11.5117 121.842 12.5664H127.73V12.2295C127.711 11.292 127.457 10.5693 126.969 10.0615C126.48 9.54395 125.787 9.28516 124.889 9.28516Z" fill="white"/>
</svg>
